<?xml version="1.0" encoding="utf-8"?>
<!-- Generator: Adobe Illustrator 24.1.2, SVG Export Plug-In . SVG Version: 6.00 Build 0)  -->
<svg version="1.1" id="Слой_1" xmlns="http://www.w3.org/2000/svg" xmlns:xlink="http://www.w3.org/1999/xlink" x="0px" y="0px"
	 viewBox="0 0 197.89 98.3" style="enable-background:new 0 0 197.89 98.3;" xml:space="preserve">
<style type="text/css">
	.st0{fill:#FFFFFF;}
</style>
<g>
	<path class="st0" d="M178.5,98.3H19.39C8.7,98.3,0,89.6,0,78.91V19.39C0,8.7,8.7,0,19.39,0H178.5c10.69,0,19.39,8.7,19.39,19.39
		v59.52C197.89,89.6,189.19,98.3,178.5,98.3z M19.39,1C9.25,1,1,9.25,1,19.39v59.52C1,89.05,9.25,97.3,19.39,97.3H178.5
		c10.14,0,18.39-8.25,18.39-18.39V19.39C196.89,9.25,188.64,1,178.5,1H19.39z"/>
</g>
<g>
	<g>
		<g>
			<g>
				<g>
					<polygon class="st0" points="37.9,40.36 34.79,40.36 34.16,40.36 34.06,40.95 29.89,63.92 25.58,40.94 25.47,40.36 
						24.84,40.36 21.73,40.36 18.63,40.36 17.88,40.36 17.88,41.07 17.88,74.56 17.88,75.26 18.63,75.26 20.41,75.26 22.17,75.26 
						22.92,75.26 22.92,74.56 22.92,53.08 27.17,74.69 27.29,75.26 27.91,75.26 29.83,75.26 31.75,75.26 32.37,75.26 32.48,74.69 
						36.72,53.12 36.72,74.56 36.72,75.26 37.47,75.26 39.25,75.26 41.01,75.26 41.76,75.26 41.76,74.56 41.76,41.07 41.76,40.36 
						41.01,40.36 					"/>
				</g>
				<g>
					<polygon class="st0" points="50.3,70.08 50.3,59.93 58.65,59.93 59.39,59.93 59.39,59.23 59.39,57.33 59.39,55.45 59.39,54.75 
						58.65,54.75 50.3,54.75 50.3,45.55 59.22,45.55 59.97,45.55 59.97,44.84 59.97,42.94 59.97,41.07 59.97,40.36 59.22,40.36 
						45.3,40.36 44.55,40.36 44.55,41.07 44.55,74.56 44.55,75.26 45.3,75.26 59.51,75.26 60.25,75.26 60.25,74.56 60.25,72.66 
						60.25,70.78 60.25,70.08 59.51,70.08 					"/>
				</g>
				<g>
					<path class="st0" d="M77.46,42.61c-1.43-1.49-3.97-2.25-7.56-2.25h-4.62h-2H62.5v0.7v33.49v0.7h0.79h2.02h2h0.79v-0.7v-12.7
						h1.81c3.36,0,6.03-0.67,7.58-2.35c1.48-1.61,2.04-4.45,2.09-7.88l0,1.19v-2.77h0C79.52,46.48,78.83,44.05,77.46,42.61z
						 M73.98,50.32c-0.02,2.47,0,5.36-0.57,5.9c-0.82,0.79-1.89,0.81-3.51,0.81h-1.81V45.55h1.81c1.58,0,2.66,0.32,3.2,0.94
						C73.48,46.94,73.95,47.97,73.98,50.32z"/>
				</g>
				<g>
					<path class="st0" d="M95.98,40.36h-1.92h-1.9h-0.75v0.7v14.57c-0.16,0.17-0.45,0.34-0.84,0.49c-0.57,0.22-1.15,0.33-1.74,0.33
						c-0.85,0-1.43-0.26-1.8-0.82c-0.44-0.65-0.66-1.76-0.66-3.29V41.07v-0.7h-0.75h-1.92h-1.9h-0.75v0.7v12.56
						c0,2.87,0.6,5.05,1.79,6.48c1.23,1.48,3.12,2.23,5.62,2.23c0.87,0,1.85-0.19,2.93-0.57v12.8v0.71l0.76-0.01l1.92-0.02
						l1.88,0.02l0.76,0.01v-0.71V41.07v-0.7H95.98z"/>
				</g>
			</g>
			<g>
				<g>
					<g>
						<polygon class="st0" points="159.99,75.27 163.09,75.27 163.72,75.27 163.83,74.69 168,51.71 172.31,74.69 172.42,75.27 
							173.05,75.27 176.16,75.27 179.26,75.27 180.01,75.27 180.01,74.57 180.01,41.08 180.01,40.37 179.26,40.37 177.48,40.37 
							175.72,40.37 174.97,40.37 174.97,41.08 174.97,62.56 170.72,40.95 170.6,40.37 169.98,40.37 168.06,40.37 166.14,40.37 
							165.52,40.37 165.41,40.95 161.17,62.51 161.17,41.08 161.17,40.37 160.42,40.37 158.64,40.37 156.88,40.37 156.13,40.37 
							156.13,41.08 156.13,74.57 156.13,75.27 156.88,75.27 						"/>
					</g>
					<g>
						<polygon class="st0" points="147.59,45.55 147.59,55.7 139.24,55.7 138.49,55.7 138.49,56.41 138.49,58.31 138.49,60.18 
							138.49,60.89 139.24,60.89 147.59,60.89 147.59,70.09 138.67,70.09 137.92,70.09 137.92,70.79 137.92,72.69 137.92,74.57 
							137.92,75.27 138.67,75.27 152.59,75.27 153.33,75.27 153.33,74.57 153.33,41.08 153.33,40.37 152.59,40.37 138.38,40.37 
							137.64,40.37 137.64,41.08 137.64,42.98 137.64,44.85 137.64,45.55 138.38,45.55 						"/>
					</g>
					<g>
						<path class="st0" d="M120.43,73.02c1.43,1.49,3.97,2.25,7.56,2.25h4.62h2h0.79v-0.7V41.08v-0.7h-0.79h-2.02h-2h-0.79v0.7v12.7
							h-1.81c-3.36,0-6.03,0.67-7.58,2.35c-1.48,1.61-2.04,4.45-2.09,7.88l0-1.19v2.77h0C118.37,69.16,119.06,71.59,120.43,73.02z
							 M123.91,65.32c0.02-2.47,0-5.36,0.57-5.9c0.82-0.79,1.89-0.81,3.51-0.81h1.81v11.49h-1.81c-1.58,0-2.66-0.32-3.2-0.94
							C124.41,68.7,123.93,67.67,123.91,65.32z"/>
					</g>
					<g>
						<path class="st0" d="M101.9,75.27h1.92h1.9h0.75v-0.7V60c0.16-0.17,0.45-0.34,0.84-0.49c0.57-0.22,1.15-0.33,1.74-0.33
							c0.85,0,1.43,0.26,1.8,0.82c0.44,0.65,0.66,1.76,0.66,3.29v11.27v0.7h0.75h1.92h1.9h0.75v-0.7V62.01
							c0-2.87-0.6-5.05-1.79-6.48c-1.23-1.48-3.12-2.23-5.62-2.23c-0.87,0-1.85,0.19-2.93,0.57v-12.8v-0.71l-0.76,0.01l-1.92,0.02
							l-1.88-0.02l-0.76-0.01v0.71v33.49v0.7H101.9z"/>
					</g>
				</g>
			</g>
		</g>
	</g>
	<g>
		<g>
			<path class="st0" d="M25.73,28.42c-0.13,1.01-0.53,1.82-1.22,2.42s-1.54,0.9-2.58,0.9c-1.24,0-2.22-0.39-2.96-1.18
				c-0.74-0.78-1.1-1.81-1.1-3.08c0-1.37,0.37-2.45,1.11-3.26c0.74-0.81,1.74-1.21,3-1.21c1.06,0,1.91,0.27,2.55,0.8
				s1.02,1.27,1.13,2.22h-1.81c-0.11-0.52-0.32-0.92-0.64-1.2c-0.32-0.28-0.73-0.42-1.22-0.42c-0.7,0-1.26,0.26-1.66,0.79
				s-0.61,1.25-0.61,2.17c0,0.92,0.19,1.63,0.58,2.14c0.39,0.51,0.93,0.77,1.62,0.77c0.54,0,0.99-0.16,1.34-0.49
				c0.35-0.33,0.57-0.79,0.66-1.4H25.73z"/>
		</g>
		<g>
			<path class="st0" d="M30.97,23.04c1.26,0,2.26,0.4,3.01,1.18c0.75,0.79,1.12,1.85,1.12,3.18c0,1.34-0.37,2.41-1.11,3.2
				c-0.74,0.79-1.75,1.18-3.02,1.18c-1.29,0-2.31-0.39-3.07-1.18c-0.76-0.79-1.14-1.86-1.14-3.2c0-1.33,0.38-2.39,1.14-3.18
				C28.66,23.44,29.69,23.04,30.97,23.04z M32.64,25.26c-0.41-0.52-0.98-0.78-1.7-0.78s-1.3,0.26-1.71,0.78
				c-0.42,0.52-0.62,1.24-0.62,2.14c0,0.93,0.21,1.65,0.62,2.18c0.42,0.52,0.99,0.78,1.73,0.78c0.71,0,1.28-0.26,1.69-0.79
				c0.41-0.53,0.62-1.26,0.62-2.18C33.25,26.49,33.05,25.77,32.64,25.26z"/>
		</g>
		<g>
			<path class="st0" d="M43.38,29.09c0,0.84-0.35,1.5-1.05,1.97c-0.7,0.47-1.52,0.7-2.47,0.7c-1.17,0-2.08-0.25-2.71-0.74
				s-0.97-1.18-1.02-2.06h1.84c0.13,0.93,0.75,1.39,1.87,1.39c0.52,0,0.94-0.11,1.25-0.33c0.31-0.22,0.46-0.52,0.46-0.9
				c0-0.81-0.54-1.22-1.62-1.22h-1.02v-1.34h0.74c1.1,0,1.65-0.36,1.65-1.09c0-0.69-0.5-1.04-1.5-1.04c-0.88,0-1.4,0.41-1.58,1.23
				h-1.84c0.16-1.75,1.36-2.62,3.6-2.62c0.93,0,1.68,0.18,2.26,0.54c0.58,0.36,0.87,0.92,0.87,1.68c0,0.45-0.13,0.83-0.39,1.15
				c-0.26,0.32-0.57,0.52-0.94,0.59v0.03c0.44,0.09,0.81,0.3,1.13,0.65C43.22,28.04,43.38,28.5,43.38,29.09z"/>
		</g>
		<g>
			<path class="st0" d="M53.41,34.16h-1.73v-2.62h-5.87v2.62h-1.73V30.1h1.04c0.65-1.53,0.98-3.49,0.98-5.89v-0.93h6.21v6.82h1.1
				V34.16z M50.52,30.1v-5.41h-2.67v0.56c0,0.86-0.09,1.77-0.27,2.71C47.39,28.9,47.2,29.62,47,30.1H50.52z"/>
		</g>
		<g>
			<path class="st0" d="M54.45,25.82c0.19-1.87,1.4-2.8,3.62-2.8c1.03,0,1.86,0.2,2.47,0.61s0.92,1.03,0.92,1.89v4.19
				c0,0.23,0.03,0.4,0.09,0.48c0.06,0.09,0.17,0.13,0.34,0.13c0.13,0,0.27-0.01,0.42-0.03v1.28c-0.47,0.12-0.86,0.18-1.18,0.18
				c-0.78,0-1.23-0.33-1.34-0.99c-0.69,0.66-1.66,0.99-2.9,0.99c-0.85,0-1.53-0.22-2.03-0.66c-0.5-0.44-0.75-1.04-0.75-1.8
				c0-0.23,0.03-0.45,0.08-0.66c0.05-0.2,0.12-0.38,0.18-0.53s0.18-0.29,0.34-0.42c0.15-0.13,0.28-0.23,0.38-0.32
				s0.27-0.17,0.5-0.24s0.4-0.13,0.51-0.17c0.11-0.04,0.31-0.08,0.58-0.12c0.28-0.04,0.46-0.07,0.55-0.09
				c0.09-0.02,0.28-0.04,0.57-0.07c0.65-0.09,1.09-0.16,1.33-0.22s0.39-0.15,0.48-0.26c0.07-0.08,0.11-0.28,0.11-0.59
				c0-0.83-0.57-1.25-1.7-1.25c-0.6,0-1.04,0.11-1.31,0.34c-0.28,0.22-0.45,0.6-0.53,1.14H54.45z M59.7,27.39
				c-0.14,0.07-0.3,0.14-0.48,0.2s-0.33,0.1-0.44,0.11c-0.11,0.02-0.29,0.04-0.53,0.07c-0.24,0.03-0.4,0.05-0.47,0.06
				c-0.22,0.03-0.4,0.06-0.53,0.09c-0.13,0.03-0.29,0.07-0.47,0.14s-0.33,0.14-0.43,0.23c-0.1,0.09-0.19,0.21-0.26,0.37
				c-0.08,0.15-0.11,0.34-0.11,0.55c0,0.39,0.13,0.7,0.39,0.91c0.26,0.21,0.63,0.32,1.1,0.32c0.81,0,1.43-0.22,1.87-0.66
				c0.25-0.25,0.37-0.72,0.37-1.42V27.39z"/>
		</g>
		<g>
			<path class="st0" d="M65.25,31.54h-1.82v-8.26h1.82v3.23h3.62v-3.23h1.82v8.26h-1.82v-3.58h-3.62V31.54z"/>
		</g>
		<g>
			<path class="st0" d="M76.44,23.04c1.26,0,2.26,0.4,3.01,1.18c0.75,0.79,1.12,1.85,1.12,3.18c0,1.34-0.37,2.41-1.11,3.2
				c-0.74,0.79-1.75,1.18-3.02,1.18c-1.29,0-2.32-0.39-3.07-1.18c-0.76-0.79-1.14-1.86-1.14-3.2c0-1.33,0.38-2.39,1.14-3.18
				C74.14,23.44,75.16,23.04,76.44,23.04z M78.11,25.26c-0.41-0.52-0.98-0.78-1.7-0.78c-0.73,0-1.3,0.26-1.71,0.78
				c-0.42,0.52-0.62,1.24-0.62,2.14c0,0.93,0.21,1.65,0.62,2.18c0.42,0.52,0.99,0.78,1.73,0.78c0.71,0,1.28-0.26,1.69-0.79
				c0.41-0.53,0.62-1.26,0.62-2.18C78.72,26.49,78.52,25.77,78.11,25.26z"/>
		</g>
		<g>
			<path class="st0" d="M93.93,29.2c0,0.75-0.26,1.32-0.79,1.73c-0.53,0.41-1.28,0.61-2.25,0.61h-4.34v-8.26h4.56
				c0.77,0,1.37,0.18,1.8,0.53c0.43,0.35,0.65,0.85,0.65,1.49c0,0.44-0.1,0.79-0.29,1.06s-0.49,0.5-0.9,0.69v0.03
				C93.41,27.34,93.93,28.05,93.93,29.2z M90.64,24.66h-2.27v1.9h2.32c0.7,0,1.06-0.33,1.06-0.99
				C91.75,24.96,91.38,24.66,90.64,24.66z M90.89,27.89h-2.51v2.27h2.51c0.82,0,1.23-0.37,1.23-1.12c0-0.36-0.11-0.65-0.32-0.85
				C91.58,27.99,91.28,27.89,90.89,27.89z"/>
		</g>
	</g>
</g>
</svg>
